Quadratines-Regular.ufo
<glyph name="B" format="2">
  <advance width="583"/>
  <unicode hex="0042"/>
  <outline>
    <contour>
      <point x="120" y="0" type="curve" smooth="yes"/>
      <point x="235" y="0" type="line" smooth="yes"/>
      <point x="425" y="0"/>
      <point x="533" y="69"/>
      <point x="533" y="221" type="curve" smooth="yes"/>
      <point x="533" y="391"/>
      <point x="375" y="442"/>
      <point x="199" y="442" type="curve" smooth="yes"/>
      <point x="142" y="442" type="line"/>
      <point x="142" y="364" type="line"/>
      <point x="245" y="364" type="line" smooth="yes"/>
      <point x="380" y="364"/>
      <point x="421" y="312"/>
      <point x="421" y="221" type="curve" smooth="yes"/>
      <point x="421" y="130"/>
      <point x="383" y="78"/>
      <point x="225" y="78" type="curve" smooth="yes"/>
      <point x="121" y="78" type="line"/>
      <point x="121" y="78"/>
      <point x="119.4" y="0.7998"/>
    </contour>
    <contour>
      <point x="30" y="0" type="curve"/>
      <point x="160" y="0" type="line"/>
      <point x="160" y="0"/>
      <point x="150" y="78"/>
      <point x="150" y="276" type="curve" smooth="yes"/>
      <point x="150" y="474" type="line" smooth="yes"/>
      <point x="150" y="670"/>
      <point x="160" y="750"/>
      <point x="160" y="750" type="curve"/>
      <point x="116.667" y="750"/>
      <point x="73.3333" y="750"/>
      <point x="30" y="750" type="curve"/>
      <point x="30" y="750"/>
      <point x="40" y="670"/>
      <point x="40" y="474" type="curve" smooth="yes"/>
      <point x="40" y="275" type="line" smooth="yes"/>
      <point x="40" y="77"/>
      <point x="30" y="0"/>
    </contour>
    <contour>
      <point x="111" y="364" type="curve" smooth="yes"/>
      <point x="155" y="364" type="line" smooth="yes"/>
      <point x="345" y="364"/>
      <point x="463" y="419"/>
      <point x="463" y="559" type="curve" smooth="yes"/>
      <point x="463" y="699"/>
      <point x="339" y="761"/>
      <point x="212" y="761" type="curve" smooth="yes"/>
      <point x="129.351" y="761"/>
      <point x="36" y="750"/>
      <point x="36" y="750" type="curve"/>
      <point x="46" y="670" type="line"/>
      <point x="46" y="670"/>
      <point x="149.477" y="685"/>
      <point x="208" y="685" type="curve" smooth="yes"/>
      <point x="291" y="685"/>
      <point x="355" y="644"/>
      <point x="355" y="559" type="curve" smooth="yes"/>
      <point x="355" y="468"/>
      <point x="316" y="442"/>
      <point x="184" y="442" type="curve" smooth="yes"/>
      <point x="112" y="442" type="line"/>
      <point x="112" y="442"/>
      <point x="110.4" y="364.8"/>
    </contour>
  </outline>
</glyph>
<glyph name="C" format="2">
	<advance width="609"/>
	<unicode hex="0043"/>
	<outline>
		<contour>
			<point x="526" y="734" type="line"/>
			<point x="458" y="768"/>
			<point x="359" y="769"/>
			<point x="359" y="769" type="curve"/>
			<point x="169" y="769"/>
			<point x="60" y="640"/>
			<point x="60" y="375" type="curve" smooth="yes"/>
			<point x="60" y="110"/>
			<point x="170" y="-14"/>
			<point x="360" y="-14" type="curve" smooth="yes"/>
			<point x="422" y="-14"/>
			<point x="513" y="12"/>
			<point x="559" y="38" type="curve"/>
			<point x="529" y="129" type="line"/>
			<point x="492" y="104"/>
			<point x="409" y="78"/>
			<point x="360" y="78" type="curve" smooth="yes"/>
			<point x="230" y="78"/>
			<point x="180" y="164"/>
			<point x="180" y="375" type="curve" smooth="yes"/>
			<point x="180" y="586"/>
			<point x="229" y="686"/>
			<point x="359" y="686" type="curve" smooth="yes"/>
			<point x="412" y="686"/>
			<point x="439" y="669"/>
			<point x="469" y="636" type="curve"/>
		</contour>
	</outline>
</glyph>
<glyph name="D" format="2">
	<advance width="666"/>
	<unicode hex="0044"/>
	<outline>
		<contour>
			<point x="121" y="0" type="curve"/>
			<point x="308" y="0" type="line" smooth="yes"/>
			<point x="484" y="0"/>
			<point x="601" y="147"/>
			<point x="601" y="375" type="curve" smooth="yes"/>
			<point x="601" y="624"/>
			<point x="484" y="750"/>
			<point x="308" y="750" type="curve" smooth="yes"/>
			<point x="128" y="750" type="line"/>
			<point x="119" y="672" type="line"/>
			<point x="228" y="672" type="line" smooth="yes"/>
			<point x="398" y="672"/>
			<point x="486" y="603"/>
			<point x="486" y="375" type="curve" smooth="yes"/>
			<point x="486" y="147"/>
			<point x="398" y="82"/>
			<point x="228" y="82" type="curve" smooth="yes"/>
			<point x="202" y="82"/>
			<point x="151" y="81"/>
			<point x="120" y="81" type="curve"/>
			<point x="121" y="85"/>
			<point x="121" y="37"/>
		</contour>
		<contour>
			<point x="60" y="0" type="curve"/>
			<point x="190" y="0" type="line"/>
			<point x="186" y="34"/>
			<point x="180" y="131"/>
			<point x="180" y="276" type="curve" smooth="yes"/>
			<point x="180" y="474" type="line" smooth="yes"/>
			<point x="180" y="617"/>
			<point x="186" y="716"/>
			<point x="190" y="750" type="curve"/>
			<point x="60" y="750" type="line"/>
			<point x="64" y="716"/>
			<point x="70" y="617"/>
			<point x="70" y="474" type="curve" smooth="yes"/>
			<point x="70" y="275" type="line" smooth="yes"/>
			<point x="70" y="130"/>
			<point x="64" y="33"/>
		</contour>
	</outline>
</glyph>
<glyph name="E" format="2">
	<advance width="439"/>
	<unicode hex="0045"/>
	<outline>
		<contour>
			<point x="25" y="0" type="line"/>
			<point x="316" y="0" type="line"/>
			<point x="389" y="0"/>
			<point x="427" y="17"/>
			<point x="427" y="62" type="curve" smooth="yes"/>
			<point x="427" y="99"/>
			<point x="394" y="111"/>
			<point x="394" y="111" type="curve"/>
			<point x="394" y="111"/>
			<point x="386" y="78"/>
			<point x="285" y="78" type="curve"/>
			<point x="122" y="78" type="line"/>
			<point x="121" y="314" type="line"/>
			<point x="229" y="314" type="line" smooth="yes"/>
			<point x="302" y="314"/>
			<point x="362" y="317"/>
			<point x="362" y="374" type="curve" smooth="yes"/>
			<point x="362" y="412"/>
			<point x="326" y="417"/>
			<point x="326" y="417" type="curve"/>
			<point x="326" y="417"/>
			<point x="310" y="392"/>
			<point x="193" y="392" type="curve" smooth="yes"/>
			<point x="121" y="392" type="line"/>
			<point x="121" y="622" type="line"/>
			<point x="239" y="622" type="line"/>
			<point x="338" y="622"/>
			<point x="359" y="583"/>
			<point x="359" y="583" type="curve"/>
			<point x="359" y="583"/>
			<point x="394" y="597"/>
			<point x="394" y="641" type="curve" smooth="yes"/>
			<point x="394" y="683"/>
			<point x="357" y="700"/>
			<point x="300" y="700" type="curve"/>
			<point x="93" y="700" type="line" smooth="yes"/>
			<point x="39" y="700"/>
			<point x="10" y="678"/>
			<point x="10" y="678" type="curve"/>
			<point x="10" y="678"/>
			<point x="25" y="653"/>
			<point x="25" y="545" type="curve" smooth="yes"/>
		</contour>
	</outline>
</glyph>
<glyph name="F" format="2">
	<advance width="461"/>
	<unicode hex="0046"/>
	<outline>
		<contour>
			<point x="200" y="0" type="line"/>
			<point x="296" y="0" type="line"/>
			<point x="296" y="700" type="line"/>
			<point x="200" y="700" type="line"/>
		</contour>
		<contour>
			<point x="54" y="0" type="line"/>
			<point x="210" y="0" type="line"/>
			<point x="210" y="78" type="line"/>
			<point x="199" y="78" type="line" smooth="yes"/>
			<point x="97" y="78"/>
			<point x="54" y="93"/>
			<point x="54" y="93" type="curve"/>
		</contour>
		<contour>
			<point x="286" y="0" type="line"/>
			<point x="442" y="0" type="line"/>
			<point x="442" y="93" type="line"/>
			<point x="442" y="93"/>
			<point x="399" y="78"/>
			<point x="297" y="78" type="curve" smooth="yes"/>
			<point x="286" y="78" type="line"/>
		</contour>
		<contour>
			<point x="54" y="607" type="line"/>
			<point x="54" y="607"/>
			<point x="97" y="622"/>
			<point x="199" y="622" type="curve" smooth="yes"/>
			<point x="210" y="622" type="line"/>
			<point x="210" y="700" type="line"/>
			<point x="54" y="700" type="line"/>
		</contour>
		<contour>
			<point x="442" y="607" type="curve"/>
			<point x="442" y="700" type="line"/>
			<point x="286" y="700" type="line"/>
			<point x="286" y="622" type="line"/>
			<point x="297" y="622" type="line" smooth="yes"/>
			<point x="399" y="622"/>
			<point x="442" y="607"/>
		</contour>
	</outline>
</glyph>
<glyph name="G" format="2">
	<advance width="724"/>
	<unicode hex="0047"/>
	<outline>
		<contour>
			<point x="366" y="-14" type="curve" smooth="yes"/>
			<point x="564" y="-14"/>
			<point x="659" y="138"/>
			<point x="659" y="291" type="curve" smooth="yes"/>
			<point x="659" y="323"/>
			<point x="659" y="354"/>
			<point x="651" y="386" type="curve"/>
			<point x="408" y="385" type="line" smooth="yes"/>
			<point x="380" y="385"/>
			<point x="362" y="376"/>
			<point x="362" y="335" type="curve" smooth="yes"/>
			<point x="362" y="308"/>
			<point x="375" y="292"/>
			<point x="385" y="288" type="curve"/>
			<point x="401" y="296"/>
			<point x="457" y="307"/>
			<point x="550" y="307" type="curve" smooth="yes"/>
			<point x="578" y="307" type="line"/>
			<point x="543" y="363" type="line"/>
			<point x="552" y="348"/>
			<point x="564" y="315"/>
			<point x="564" y="283" type="curve" smooth="yes"/>
			<point x="564" y="167"/>
			<point x="483" y="66"/>
			<point x="361" y="66" type="curve" smooth="yes"/>
			<point x="265" y="66"/>
			<point x="174" y="132"/>
			<point x="174" y="375" type="curve" smooth="yes"/>
			<point x="174" y="586"/>
			<point x="237" y="683"/>
			<point x="395" y="683" type="curve" smooth="yes"/>
			<point x="486" y="683"/>
			<point x="533" y="632"/>
			<point x="544" y="593" type="curve"/>
			<point x="572" y="603"/>
			<point x="610" y="632"/>
			<point x="610" y="671" type="curve" smooth="yes"/>
			<point x="610" y="698"/>
			<point x="559" y="768"/>
			<point x="391" y="768" type="curve" smooth="yes"/>
			<point x="173" y="768"/>
			<point x="60" y="622"/>
			<point x="60" y="376" type="curve" smooth="yes"/>
			<point x="60" y="119"/>
			<point x="183" y="-14"/>
		</contour>
	</outline>
</glyph>
<glyph name="H" format="2">
	<advance width="623"/>
	<unicode hex="0048"/>
	<outline>
		<contour>
			<point x="52" y="0" type="line"/>
			<point x="152" y="0" type="line"/>
			<point x="151" y="700" type="line" smooth="yes"/>
			<point x="151" y="702"/>
			<point x="50" y="700"/>
			<point x="50" y="700" type="curve"/>
		</contour>
		<contour>
			<point x="150" y="336" type="line"/>
			<point x="481" y="336" type="line"/>
			<point x="481" y="420" type="line"/>
			<point x="150" y="420" type="line"/>
		</contour>
		<contour>
			<point x="473" y="2" type="line"/>
			<point x="573" y="2" type="line"/>
			<point x="573" y="702" type="line" smooth="yes"/>
			<point x="575" y="702"/>
			<point x="472" y="702"/>
			<point x="472" y="702" type="curve"/>
		</contour>
	</outline>
</glyph>
<glyph name="I" format="2">
  <advance width="425"/>
  <unicode hex="0049"/>
  <outline>
    <contour>
      <point x="144" y="0" type="curve"/>
      <point x="280" y="0" type="line"/>
      <point x="280" y="0"/>
      <point x="260" y="78"/>
      <point x="260" y="276" type="curve" smooth="yes"/>
      <point x="260" y="424" type="line" smooth="yes"/>
      <point x="260" y="620"/>
      <point x="280" y="700"/>
      <point x="280" y="700" type="curve"/>
      <point x="144" y="700" type="line"/>
      <point x="144" y="700"/>
      <point x="164" y="620"/>
      <point x="164" y="424" type="curve" smooth="yes"/>
      <point x="164" y="275" type="line" smooth="yes"/>
      <point x="164" y="77"/>
      <point x="144" y="0"/>
    </contour>
  </outline>
</glyph>
<glyph name="L" format="2">
  <advance width="459"/>
  <unicode hex="004C"/>
  <outline>
    <contour>
      <point x="126" y="0" type="line"/>
      <point x="405" y="0" type="line"/>
      <point x="439" y="0"/>
      <point x="452" y="9"/>
      <point x="452" y="53" type="curve" smooth="yes"/>
      <point x="452" y="86"/>
      <point x="436" y="99"/>
      <point x="436" y="99" type="curve" smooth="yes"/>
      <point x="436" y="99"/>
      <point x="413" y="78"/>
      <point x="269" y="78" type="curve"/>
      <point x="126" y="78" type="line"/>
    </contour>
    <contour>
      <point x="30" y="0" type="curve"/>
      <point x="160" y="0" type="line"/>
      <point x="160" y="0"/>
      <point x="150" y="78"/>
      <point x="150" y="276" type="curve" smooth="yes"/>
      <point x="150" y="474" type="line" smooth="yes"/>
      <point x="150" y="670"/>
      <point x="160" y="750"/>
      <point x="160" y="750" type="curve"/>
      <point x="30" y="750" type="line"/>
      <point x="30" y="750"/>
      <point x="40" y="670"/>
      <point x="40" y="474" type="curve" smooth="yes"/>
      <point x="40" y="275" type="line" smooth="yes"/>
      <point x="40" y="77"/>
      <point x="30" y="0"/>
    </contour>
  </outline>
</glyph>
<glyph name="N" format="2">
	<advance width="634"/>
	<unicode hex="004E"/>
	<anchor x="315" y="786" name="top"/>
	<outline>
		<contour>
			<point x="428" y="0" type="line"/>
			<point x="552" y="0" type="line"/>
			<point x="199" y="750" type="line"/>
			<point x="83" y="750" type="line"/>
		</contour>
		<contour>
			<point x="55" y="0" type="curve"/>
			<point x="165" y="0" type="line"/>
			<point x="161" y="34"/>
			<point x="155" y="131"/>
			<point x="155" y="276" type="curve" smooth="yes"/>
			<point x="155" y="474" type="line" smooth="yes"/>
			<point x="155" y="617"/>
			<point x="161" y="716"/>
			<point x="165" y="750" type="curve"/>
			<point x="55" y="750" type="line"/>
			<point x="59" y="716"/>
			<point x="65" y="617"/>
			<point x="65" y="474" type="curve" smooth="yes"/>
			<point x="65" y="275" type="line" smooth="yes"/>
			<point x="65" y="130"/>
			<point x="59" y="33"/>
		</contour>
		<contour>
			<point x="469" y="0" type="curve"/>
			<point x="579" y="0" type="line"/>
			<point x="575" y="34"/>
			<point x="569" y="131"/>
			<point x="569" y="276" type="curve" smooth="yes"/>
			<point x="569" y="474" type="line" smooth="yes"/>
			<point x="569" y="617"/>
			<point x="575" y="716"/>
			<point x="579" y="750" type="curve"/>
			<point x="469" y="750" type="line"/>
			<point x="473" y="716"/>
			<point x="479" y="617"/>
			<point x="479" y="474" type="curve" smooth="yes"/>
			<point x="479" y="275" type="line" smooth="yes"/>
			<point x="479" y="130"/>
			<point x="473" y="33"/>
		</contour>
	</outline>
</glyph>
<glyph name="O" format="2">
	<advance width="690"/>
	<unicode hex="004F"/>
	<outline>
		<contour>
			<point x="345" y="-14" type="curve" smooth="yes"/>
			<point x="535" y="-14"/>
			<point x="650" y="100"/>
			<point x="650" y="375" type="curve" smooth="yes"/>
			<point x="650" y="650"/>
			<point x="535" y="766"/>
			<point x="345" y="766" type="curve" smooth="yes"/>
			<point x="155" y="766"/>
			<point x="40" y="650"/>
			<point x="40" y="375" type="curve" smooth="yes"/>
			<point x="40" y="100"/>
			<point x="155" y="-14"/>
		</contour>
		<contour>
			<point x="345" y="68" type="curve" smooth="yes"/>
			<point x="215" y="68"/>
			<point x="160" y="154"/>
			<point x="160" y="375" type="curve" smooth="yes"/>
			<point x="160" y="596"/>
			<point x="215" y="683"/>
			<point x="345" y="683" type="curve" smooth="yes"/>
			<point x="475" y="683"/>
			<point x="530" y="596"/>
			<point x="530" y="375" type="curve" smooth="yes"/>
			<point x="530" y="154"/>
			<point x="475" y="68"/>
		</contour>
	</outline>
</glyph>
<glyph name="P" format="2">
	<advance width="539"/>
	<unicode hex="0050"/>
	<outline>
		<contour>
			<point x="208" y="303" type="curve" smooth="yes"/>
			<point x="368" y="303"/>
			<point x="501" y="379"/>
			<point x="499" y="549" type="curve" smooth="yes"/>
			<point x="497" y="722"/>
			<point x="359" y="764"/>
			<point x="217" y="764" type="curve" smooth="yes"/>
			<point x="174" y="764"/>
			<point x="102" y="754"/>
			<point x="60" y="746" type="curve"/>
			<point x="63" y="726"/>
			<point x="67" y="691"/>
			<point x="67" y="668" type="curve"/>
			<point x="106" y="676"/>
			<point x="174" y="686"/>
			<point x="219" y="686" type="curve" smooth="yes"/>
			<point x="302" y="686"/>
			<point x="406" y="654"/>
			<point x="407" y="530" type="curve" smooth="yes"/>
			<point x="408" y="443"/>
			<point x="310" y="380"/>
			<point x="223" y="380" type="curve" smooth="yes"/>
			<point x="183" y="380"/>
			<point x="114" y="389"/>
			<point x="73" y="396" type="curve"/>
			<point x="73" y="316" type="line"/>
			<point x="107" y="310"/>
			<point x="167" y="303"/>
		</contour>
		<contour>
			<point x="62" y="0" type="curve"/>
			<point x="176" y="0" type="line"/>
			<point x="169" y="109"/>
			<point x="167" y="175"/>
			<point x="167" y="272" type="curve" smooth="yes"/>
			<point x="166" y="746" type="line"/>
			<point x="67" y="746" type="line"/>
			<point x="67" y="274" type="line" smooth="yes"/>
			<point x="67" y="175"/>
			<point x="67" y="109"/>
		</contour>
	</outline>
</glyph>
<glyph name="Q" format="2">
	<advance width="739"/>
	<unicode hex="0051"/>
	<outline>
		<contour>
			<point x="573" y="-204" type="curve" smooth="yes"/>
			<point x="603" y="-204"/>
			<point x="689" y="-187"/>
			<point x="689" y="-149" type="curve" smooth="yes"/>
			<point x="689" y="-114"/>
			<point x="682" y="-81"/>
			<point x="665" y="-64" type="curve"/>
			<point x="665" y="-64"/>
			<point x="633" y="-108"/>
			<point x="561" y="-108" type="curve" smooth="yes"/>
			<point x="450" y="-108"/>
			<point x="382" y="-72"/>
			<point x="366" y="-54" type="curve"/>
			<point x="555" y="-54"/>
			<point x="670" y="110"/>
			<point x="670" y="375" type="curve" smooth="yes"/>
			<point x="670" y="640"/>
			<point x="555" y="766"/>
			<point x="365" y="766" type="curve" smooth="yes"/>
			<point x="175" y="766"/>
			<point x="60" y="640"/>
			<point x="60" y="375" type="curve" smooth="yes"/>
			<point x="60" y="243"/>
			<point x="139" y="94"/>
			<point x="268" y="90" type="curve"/>
			<point x="286" y="169" type="line"/>
			<point x="210" y="185"/>
			<point x="180" y="255"/>
			<point x="180" y="375" type="curve" smooth="yes"/>
			<point x="180" y="586"/>
			<point x="235" y="683"/>
			<point x="365" y="683" type="curve" smooth="yes"/>
			<point x="495" y="683"/>
			<point x="550" y="586"/>
			<point x="550" y="375" type="curve" smooth="yes"/>
			<point x="550" y="232"/>
			<point x="538" y="20"/>
			<point x="330" y="26" type="curve" smooth="yes"/>
			<point x="290" y="27"/>
			<point x="260" y="37" type="curve"/>
			<point x="241" y="12"/>
			<point x="241" y="-19" type="line"/>
			<point x="242" y="-38"/>
			<point x="328" y="-204"/>
		</contour>
	</outline>
</glyph>
<glyph name="T" format="2">
	<advance width="568"/>
	<unicode hex="0054"/>
	<outline>
		<contour>
			<point x="214" y="0" type="curve"/>
			<point x="342" y="0" type="line"/>
			<point x="338" y="34"/>
			<point x="332" y="131"/>
			<point x="332" y="276" type="curve" smooth="yes"/>
			<point x="332" y="474" type="line" smooth="yes"/>
			<point x="332" y="617"/>
			<point x="338" y="716"/>
			<point x="342" y="750" type="curve"/>
			<point x="214" y="750" type="line"/>
			<point x="217" y="716"/>
			<point x="222" y="617"/>
			<point x="222" y="474" type="curve" smooth="yes"/>
			<point x="222" y="275" type="line" smooth="yes"/>
			<point x="222" y="130"/>
			<point x="217" y="33"/>
		</contour>
		<contour>
			<point x="548" y="646" type="curve"/>
			<point x="548" y="750" type="line"/>
			<point x="20" y="750" type="line"/>
			<point x="20" y="647" type="line"/>
			<point x="87" y="653"/>
			<point x="206" y="662"/>
			<point x="290" y="662" type="curve" smooth="yes"/>
			<point x="383" y="662"/>
			<point x="492" y="653"/>
		</contour>
	</outline>
</glyph>
<glyph name="U" format="2">
	<advance width="626"/>
	<unicode hex="0055"/>
	<outline>
		<contour>
			<point x="302" y="-14" type="curve" smooth="yes"/>
			<point x="493" y="-14"/>
			<point x="576.465" y="95.5713"/>
			<point x="578" y="375" type="curve" smooth="yes"/>
			<point x="579.313" y="614.008"/>
			<point x="584" y="750"/>
			<point x="584" y="750" type="curve"/>
			<point x="456" y="750" type="line"/>
			<point x="456" y="750"/>
			<point x="466" y="608"/>
			<point x="466" y="375" type="curve" smooth="yes"/>
			<point x="466" y="244.184"/>
			<point x="441" y="76"/>
			<point x="302" y="76" type="curve" smooth="yes"/>
			<point x="172" y="76"/>
			<point x="143.939" y="236.981"/>
			<point x="142" y="375" type="curve" smooth="yes"/>
			<point x="138.824" y="601.079"/>
			<point x="152" y="750"/>
			<point x="152" y="750" type="curve"/>
			<point x="25" y="750" type="line"/>
			<point x="25" y="750"/>
			<point x="31.9678" y="601.105"/>
			<point x="33" y="375" type="curve" smooth="yes"/>
			<point x="34.292" y="91.9961"/>
			<point x="120" y="-14"/>
		</contour>
	</outline>
</glyph>
<glyph name="V" format="2">
	<advance width="659"/>
	<unicode hex="0056"/>
	<outline>
		<contour>
			<point x="277" y="0" type="line"/>
			<point x="372" y="0" type="line"/>
			<point x="604" y="674" type="line" smooth="yes"/>
			<point x="617" y="712"/>
			<point x="658" y="712" type="curve"/>
			<point x="628" y="762"/>
			<point x="567" y="762" type="curve" smooth="yes"/>
			<point x="540" y="762"/>
			<point x="509" y="739"/>
			<point x="497" y="716" type="curve"/>
		</contour>
		<contour>
			<point x="277" y="0" type="line"/>
			<point x="373" y="30" type="line"/>
			<point x="143" y="750" type="line"/>
			<point x="20" y="750" type="line"/>
		</contour>
	</outline>
</glyph>
<glyph name="a" format="2">
	<advance width="480"/>
	<unicode hex="0061"/>
	<outline>
		<contour>
			<point x="389" y="-6" type="curve" smooth="yes"/>
			<point x="428" y="-6"/>
			<point x="443" y="29"/>
			<point x="443" y="29" type="curve"/>
			<point x="443" y="29"/>
			<point x="413" y="40"/>
			<point x="413" y="106" type="curve"/>
			<point x="413" y="151"/>
			<point x="413" y="345"/>
			<point x="413" y="345" type="curve"/>
			<point x="413" y="468"/>
			<point x="347" y="514"/>
			<point x="224" y="514" type="curve" smooth="yes"/>
			<point x="98" y="514"/>
			<point x="50" y="494"/>
			<point x="50" y="444" type="curve" smooth="yes"/>
			<point x="50" y="402"/>
			<point x="99" y="395"/>
			<point x="99" y="395" type="curve"/>
			<point x="99" y="395"/>
			<point x="134" y="436"/>
			<point x="228" y="436" type="curve" smooth="yes"/>
			<point x="304" y="436"/>
			<point x="323" y="411"/>
			<point x="323" y="357" type="curve" smooth="yes"/>
			<point x="323" y="320"/>
			<point x="323" y="155"/>
			<point x="323" y="119" type="curve"/>
			<point x="323" y="43"/>
			<point x="331" y="-6"/>
		</contour>
		<contour>
			<point x="157" y="-14" type="curve" smooth="yes"/>
			<point x="267" y="-14"/>
			<point x="376" y="94"/>
			<point x="376" y="185" type="curve" smooth="yes"/>
			<point x="323" y="185" type="line" smooth="yes"/>
			<point x="323" y="146"/>
			<point x="258" y="64"/>
			<point x="191" y="64" type="curve" smooth="yes"/>
			<point x="147" y="64"/>
			<point x="122" y="73"/>
			<point x="122" y="124" type="curve" smooth="yes"/>
			<point x="122" y="163"/>
			<point x="152" y="204"/>
			<point x="206" y="204" type="curve" smooth="yes"/>
			<point x="245" y="204"/>
			<point x="353" y="204"/>
			<point x="353" y="204" type="curve"/>
			<point x="353" y="282" type="line"/>
			<point x="353" y="282"/>
			<point x="281" y="282"/>
			<point x="219" y="282" type="curve" smooth="yes"/>
			<point x="119" y="282"/>
			<point x="33" y="226"/>
			<point x="33" y="119" type="curve" smooth="yes"/>
			<point x="33" y="25"/>
			<point x="89" y="-14"/>
		</contour>
	</outline>
</glyph>
<glyph name="b" format="2">
	<advance width="571"/>
	<unicode hex="0062"/>
	<outline>
		<contour>
			<point x="329" y="-10" type="curve"/>
			<point x="455" y="-10"/>
			<point x="521" y="105"/>
			<point x="521" y="261" type="curve"/>
			<point x="521" y="439"/>
			<point x="434" y="519"/>
			<point x="331" y="519" type="curve"/>
			<point x="239" y="519"/>
			<point x="187" y="452"/>
			<point x="187" y="452" type="curve"/>
			<point x="187" y="452"/>
			<point x="188" y="519"/>
			<point x="188" y="711" type="curve" smooth="yes"/>
			<point x="188" y="794"/>
			<point x="154" y="806"/>
			<point x="154" y="806" type="curve" smooth="yes"/>
			<point x="60" y="769" type="line"/>
			<point x="73" y="769"/>
			<point x="87" y="723"/>
			<point x="87" y="695" type="curve" smooth="yes"/>
			<point x="87" y="4" type="line"/>
			<point x="153" y="4" type="line"/>
			<point x="187" y="67" type="line"/>
			<point x="187" y="67"/>
			<point x="223" y="-11"/>
		</contour>
		<contour>
			<point x="313" y="77" type="curve"/>
			<point x="230" y="77"/>
			<point x="187" y="135"/>
			<point x="187" y="244" type="curve" smooth="yes"/>
			<point x="187" y="375"/>
			<point x="250" y="426"/>
			<point x="306" y="426" type="curve" smooth="yes"/>
			<point x="385" y="426"/>
			<point x="424" y="342"/>
			<point x="424" y="242" type="curve" smooth="yes"/>
			<point x="424" y="157"/>
			<point x="378" y="77"/>
		</contour>
	</outline>
</glyph>
<glyph name="c" format="2">
  <advance width="569"/>
  <unicode hex="0063"/>
  <anchor x="285" y="598" name="top"/>
  <outline>
    <contour>
      <point x="375.849" y="439" type="line"/>
      <point x="347.769" y="468.02"/>
      <point x="319.688" y="485"/>
      <point x="285" y="485" type="curve" smooth="yes"/>
      <point x="213" y="485"/>
      <point x="135" y="442"/>
      <point x="135" y="275" type="curve" smooth="yes"/>
      <point x="135" y="108"/>
      <point x="213" y="66"/>
      <point x="285" y="66" type="curve" smooth="yes"/>
      <point x="335.626" y="66"/>
      <point x="374" y="72"/>
      <point x="401.326" y="91" type="curve"/>
      <point x="431.975" y="26" type="line" smooth="yes"/>
      <point x="392.929" y="-0.683887"/>
      <point x="343.473" y="-14"/>
      <point x="285" y="-14" type="curve" smooth="yes"/>
      <point x="128" y="-14"/>
      <point x="35" y="82"/>
      <point x="35" y="275" type="curve" smooth="yes"/>
      <point x="35" y="468"/>
      <point x="128" y="566"/>
      <point x="285" y="566" type="curve" smooth="yes"/>
      <point x="343.02" y="566"/>
      <point x="392.163" y="552.616"/>
      <point x="431.066" y="526" type="curve" smooth="yes"/>
    </contour>
  </outline>
</glyph>
<glyph name="d" format="2">
	<advance width="582"/>
	<unicode hex="0064"/>
	<outline>
		<contour>
			<point x="408" y="448" type="line"/>
			<point x="408" y="448"/>
			<point x="409" y="63"/>
			<point x="409" y="63" type="curve"/>
			<point x="443" y="0" type="line"/>
			<point x="503" y="0" type="line"/>
			<point x="502" y="587" type="line" smooth="yes"/>
			<point x="502" y="715"/>
			<point x="537" y="768"/>
			<point x="537" y="768" type="curve"/>
			<point x="436" y="807" type="line"/>
			<point x="436" y="807"/>
			<point x="406" y="774"/>
			<point x="407" y="658" type="curve" smooth="yes"/>
		</contour>
		<contour>
			<point x="267" y="-9" type="curve" smooth="yes"/>
			<point x="447" y="-9"/>
			<point x="467" y="180"/>
			<point x="467" y="224" type="curve"/>
			<point x="409" y="215" type="line"/>
			<point x="409" y="144"/>
			<point x="361" y="74"/>
			<point x="270" y="74" type="curve" smooth="yes"/>
			<point x="198" y="74"/>
			<point x="135" y="146"/>
			<point x="135" y="271" type="curve" smooth="yes"/>
			<point x="135" y="408"/>
			<point x="189" y="477"/>
			<point x="275" y="477" type="curve" smooth="yes"/>
			<point x="366" y="477"/>
			<point x="409" y="403"/>
			<point x="409" y="341" type="curve"/>
			<point x="469" y="349" type="line"/>
			<point x="469" y="426"/>
			<point x="415" y="561"/>
			<point x="269" y="561" type="curve" smooth="yes"/>
			<point x="135" y="561"/>
			<point x="35" y="464"/>
			<point x="35" y="276" type="curve" smooth="yes"/>
			<point x="35" y="77"/>
			<point x="145" y="-9"/>
		</contour>
	</outline>
</glyph>
<glyph name="e" format="2">
	<advance width="479"/>
	<unicode hex="0065"/>
	<outline>
		<contour>
			<point x="252" y="-14" type="curve" smooth="yes"/>
			<point x="375" y="-14"/>
			<point x="445" y="10"/>
			<point x="445" y="67" type="curve" smooth="yes"/>
			<point x="445" y="96"/>
			<point x="424" y="112"/>
			<point x="411" y="112" type="curve" smooth="yes"/>
			<point x="411" y="112"/>
			<point x="370" y="64"/>
			<point x="268" y="64" type="curve" smooth="yes"/>
			<point x="170" y="64"/>
			<point x="129" y="122"/>
			<point x="129" y="259" type="curve" smooth="yes"/>
			<point x="129" y="384"/>
			<point x="171" y="436"/>
			<point x="248" y="436" type="curve" smooth="yes"/>
			<point x="333" y="436"/>
			<point x="350" y="391"/>
			<point x="350" y="322" type="curve"/>
			<point x="102" y="322" type="line"/>
			<point x="102" y="244" type="line"/>
			<point x="386" y="244" type="line"/>
			<point x="386" y="244"/>
			<point x="440" y="269"/>
			<point x="440" y="342" type="curve"/>
			<point x="440" y="439"/>
			<point x="362" y="514"/>
			<point x="247" y="514" type="curve" smooth="yes"/>
			<point x="134" y="514"/>
			<point x="30" y="441"/>
			<point x="30" y="259" type="curve" smooth="yes"/>
			<point x="30" y="76"/>
			<point x="113" y="-14"/>
		</contour>
	</outline>
</glyph>
<glyph name="f" format="2">
	<advance width="422"/>
	<unicode hex="0066"/>
	<outline>
		<contour>
			<point x="125" y="0" type="line"/>
			<point x="230" y="0" type="line"/>
			<point x="230" y="62"/>
			<point x="220" y="146"/>
			<point x="220" y="275" type="curve" smooth="yes"/>
			<point x="220" y="388"/>
			<point x="221" y="453"/>
			<point x="221" y="566" type="curve" smooth="yes"/>
			<point x="221" y="621"/>
			<point x="225" y="686"/>
			<point x="299" y="686" type="curve" smooth="yes"/>
			<point x="332" y="686"/>
			<point x="361" y="667"/>
			<point x="392" y="647" type="curve"/>
			<point x="422" y="740" type="line"/>
			<point x="381" y="760"/>
			<point x="326" y="770"/>
			<point x="284" y="770" type="curve" smooth="yes"/>
			<point x="111" y="770"/>
			<point x="124" y="622"/>
			<point x="124" y="517" type="curve" smooth="yes"/>
		</contour>
		<contour>
			<point x="45" y="424" type="line"/>
			<point x="355" y="424" type="line"/>
			<point x="346" y="515" type="line"/>
			<point x="278" y="502"/>
			<point x="124" y="502" type="curve" smooth="yes"/>
			<point x="45" y="502" type="line"/>
		</contour>
	</outline>
</glyph>
<glyph name="g" format="2">
	<advance width="538"/>
	<unicode hex="0067"/>
	<outline>
		<contour>
			<point x="235" y="-216" type="curve" smooth="yes"/>
			<point x="429" y="-216"/>
			<point x="498" y="-98"/>
			<point x="498" y="94" type="curve" smooth="yes"/>
			<point x="498" y="275" type="line" smooth="yes"/>
			<point x="498" y="343"/>
			<point x="508" y="550"/>
			<point x="508" y="550" type="curve"/>
			<point x="454" y="550" type="line"/>
			<point x="408" y="481" type="line"/>
			<point x="410" y="88" type="line" smooth="yes"/>
			<point x="411" y="-68"/>
			<point x="363" y="-136"/>
			<point x="234" y="-136" type="curve" smooth="yes"/>
			<point x="155" y="-136"/>
			<point x="91" y="-92"/>
			<point x="91" y="-92" type="curve"/>
			<point x="91" y="-92"/>
			<point x="63" y="-96"/>
			<point x="63" y="-142" type="curve" smooth="yes"/>
			<point x="63" y="-188"/>
			<point x="107" y="-216"/>
		</contour>
		<contour>
			<point x="267" y="-9" type="curve" smooth="yes"/>
			<point x="457" y="-9"/>
			<point x="467" y="180"/>
			<point x="467" y="224" type="curve"/>
			<point x="409" y="215" type="line"/>
			<point x="409" y="144"/>
			<point x="371" y="71"/>
			<point x="270" y="71" type="curve" smooth="yes"/>
			<point x="193" y="71"/>
			<point x="135" y="146"/>
			<point x="135" y="271" type="curve" smooth="yes"/>
			<point x="135" y="408"/>
			<point x="184" y="480"/>
			<point x="275" y="480" type="curve" smooth="yes"/>
			<point x="376" y="480"/>
			<point x="409" y="403"/>
			<point x="409" y="341" type="curve"/>
			<point x="469" y="349" type="line"/>
			<point x="469" y="426"/>
			<point x="415" y="561"/>
			<point x="269" y="561" type="curve" smooth="yes"/>
			<point x="135" y="561"/>
			<point x="35" y="464"/>
			<point x="35" y="276" type="curve" smooth="yes"/>
			<point x="35" y="77"/>
			<point x="145" y="-9"/>
		</contour>
	</outline>
</glyph>
<glyph name="h" format="2">
	<advance width="598"/>
	<unicode hex="0068"/>
	<outline>
		<contour>
			<point x="460" y="-8" type="curve"/>
			<point x="517" y="-8"/>
			<point x="558" y="17"/>
			<point x="558" y="17" type="curve"/>
			<point x="558" y="17"/>
			<point x="533" y="43"/>
			<point x="533" y="134" type="curve" smooth="yes"/>
			<point x="533" y="223"/>
			<point x="532" y="272"/>
			<point x="531" y="361" type="curve" smooth="yes"/>
			<point x="531" y="482"/>
			<point x="468" y="555"/>
			<point x="342" y="555" type="curve" smooth="yes"/>
			<point x="206" y="555"/>
			<point x="134" y="458"/>
			<point x="134" y="378" type="curve"/>
			<point x="191" y="328" type="line"/>
			<point x="192" y="392"/>
			<point x="234" y="466"/>
			<point x="324" y="466" type="curve" smooth="yes"/>
			<point x="405" y="466"/>
			<point x="436" y="413"/>
			<point x="436" y="350" type="curve" smooth="yes"/>
			<point x="436" y="141" type="line" smooth="yes"/>
			<point x="436" y="0"/>
			<point x="460" y="-8"/>
		</contour>
		<contour>
			<point x="96" y="0" type="line"/>
			<point x="201" y="0" type="line"/>
			<point x="201" y="0"/>
			<point x="190" y="70"/>
			<point x="191" y="275" type="curve" smooth="yes"/>
			<point x="192" y="430"/>
			<point x="190" y="519"/>
			<point x="190" y="675" type="curve" smooth="yes"/>
			<point x="190" y="776"/>
			<point x="161" y="814"/>
			<point x="161" y="814" type="curve"/>
			<point x="60" y="779" type="line"/>
			<point x="60" y="779"/>
			<point x="94" y="754"/>
			<point x="95" y="604" type="curve" smooth="yes"/>
		</contour>
	</outline>
</glyph>
<glyph name="i" format="2">
	<advance width="185"/>
	<unicode hex="0069"/>
	<outline>
		<contour>
			<point x="108" y="-7" type="curve" smooth="yes"/>
			<point x="148" y="-7"/>
			<point x="162" y="28"/>
			<point x="162" y="28" type="curve"/>
			<point x="162" y="28"/>
			<point x="132" y="39"/>
			<point x="132" y="105" type="curve"/>
			<point x="132" y="500" type="line"/>
			<point x="42" y="500" type="line"/>
			<point x="44" y="115" type="line"/>
			<point x="44" y="39"/>
			<point x="50" y="-7"/>
		</contour>
		<contour>
			<point x="87" y="568" type="curve" smooth="yes"/>
			<point x="116" y="568"/>
			<point x="139" y="591"/>
			<point x="139" y="620" type="curve" smooth="yes"/>
			<point x="139" y="649"/>
			<point x="116" y="672"/>
			<point x="87" y="672" type="curve" smooth="yes"/>
			<point x="58" y="672"/>
			<point x="35" y="649"/>
			<point x="35" y="620" type="curve" smooth="yes"/>
			<point x="35" y="591"/>
			<point x="58" y="568"/>
		</contour>
	</outline>
</glyph>
<glyph name="l" format="2">
	<advance width="235"/>
	<unicode hex="006C"/>
	<outline>
		<contour>
			<point x="150" y="-5" type="curve" smooth="yes"/>
			<point x="197" y="-5"/>
			<point x="215" y="12"/>
			<point x="215" y="12" type="curve"/>
			<point x="215" y="86" type="line"/>
			<point x="215" y="86"/>
			<point x="196" y="78"/>
			<point x="172" y="78" type="curve" smooth="yes"/>
			<point x="154" y="78"/>
			<point x="150" y="89"/>
			<point x="150" y="106" type="curve" smooth="yes"/>
			<point x="150" y="126"/>
			<point x="150" y="719"/>
			<point x="150" y="745" type="curve" smooth="yes"/>
			<point x="150" y="801"/>
			<point x="128" y="812"/>
			<point x="128" y="812" type="curve"/>
			<point x="40" y="764" type="line"/>
			<point x="40" y="764"/>
			<point x="58" y="745"/>
			<point x="58" y="707" type="curve" smooth="yes"/>
			<point x="58" y="678"/>
			<point x="58" y="97"/>
			<point x="58" y="88" type="curve" smooth="yes"/>
			<point x="58" y="37"/>
			<point x="66" y="-5"/>
		</contour>
	</outline>
</glyph>
<glyph name="m" format="2">
	<advance width="919"/>
	<unicode hex="006D"/>
	<outline>
		<contour>
			<point x="775" y="-8" type="curve"/>
			<point x="832" y="-8"/>
			<point x="873" y="17"/>
			<point x="873" y="17" type="curve"/>
			<point x="873" y="17"/>
			<point x="848" y="43"/>
			<point x="848" y="134" type="curve" smooth="yes"/>
			<point x="848" y="223"/>
			<point x="847" y="272"/>
			<point x="846" y="361" type="curve" smooth="yes"/>
			<point x="846" y="482"/>
			<point x="785" y="555"/>
			<point x="659" y="555" type="curve" smooth="yes"/>
			<point x="523" y="555"/>
			<point x="449" y="458"/>
			<point x="449" y="378" type="curve"/>
			<point x="506" y="331" type="line"/>
			<point x="505" y="393"/>
			<point x="549" y="466"/>
			<point x="639" y="466" type="curve" smooth="yes"/>
			<point x="720" y="466"/>
			<point x="751" y="413"/>
			<point x="751" y="350" type="curve" smooth="yes"/>
			<point x="751" y="141" type="line" smooth="yes"/>
			<point x="751" y="0"/>
			<point x="775" y="-8"/>
		</contour>
		<contour>
			<point x="77" y="0" type="line"/>
			<point x="183" y="0" type="line"/>
			<point x="183" y="0"/>
			<point x="166" y="77"/>
			<point x="166" y="275" type="curve" smooth="yes"/>
			<point x="166" y="505" type="line"/>
			<point x="143" y="551" type="line"/>
			<point x="66" y="551" type="line"/>
			<point x="66" y="551"/>
			<point x="76" y="471"/>
			<point x="76" y="275" type="curve" smooth="yes"/>
		</contour>
		<contour>
			<point x="411" y="0" type="line"/>
			<point x="510" y="0" type="line"/>
			<point x="510" y="0"/>
			<point x="508" y="43"/>
			<point x="508" y="134" type="curve" smooth="yes"/>
			<point x="508" y="223"/>
			<point x="507" y="272"/>
			<point x="506" y="361" type="curve" smooth="yes"/>
			<point x="506" y="482"/>
			<point x="443" y="555"/>
			<point x="317" y="555" type="curve" smooth="yes"/>
			<point x="181" y="555"/>
			<point x="109" y="458"/>
			<point x="109" y="378" type="curve"/>
			<point x="166" y="328" type="line"/>
			<point x="167" y="392"/>
			<point x="209" y="466"/>
			<point x="299" y="466" type="curve" smooth="yes"/>
			<point x="380" y="466"/>
			<point x="411" y="413"/>
			<point x="411" y="350" type="curve" smooth="yes"/>
			<point x="411" y="141" type="line"/>
		</contour>
	</outline>
</glyph>
<glyph name="n" format="2">
  <advance width="546"/>
  <unicode hex="006E"/>
  <guideline x="-5" y="-14" angle="0"/>
  <guideline x="-5" y="-14" angle="0"/>
  <guideline x="-5" y="-14" angle="0"/>
  <anchor x="280" y="586" name="top"/>
  <outline>
    <contour>
      <point x="450" y="-6" type="curve" smooth="yes"/>
      <point x="512" y="-6"/>
      <point x="516" y="34"/>
      <point x="516" y="34" type="curve"/>
      <point x="516" y="34"/>
      <point x="480" y="68"/>
      <point x="480" y="164" type="curve" smooth="yes"/>
      <point x="480" y="164"/>
      <point x="480" y="369"/>
      <point x="480" y="369" type="curve" smooth="yes"/>
      <point x="480" y="490"/>
      <point x="422" y="566"/>
      <point x="296" y="566" type="curve" smooth="yes"/>
      <point x="160" y="566"/>
      <point x="91" y="449"/>
      <point x="91" y="369" type="curve"/>
      <point x="140" y="359" type="line"/>
      <point x="140" y="422"/>
      <point x="178" y="477"/>
      <point x="267" y="477" type="curve" smooth="yes"/>
      <point x="348" y="477"/>
      <point x="390" y="430"/>
      <point x="390" y="367" type="curve" smooth="yes"/>
      <point x="390" y="54" type="line"/>
      <point x="390" y="3"/>
      <point x="404" y="-6"/>
    </contour>
    <contour>
      <point x="40" y="0" type="curve"/>
      <point x="150" y="0" type="line"/>
      <point x="150" y="0"/>
      <point x="140" y="77"/>
      <point x="140" y="275" type="curve" smooth="yes"/>
      <point x="140" y="470" type="line"/>
      <point x="117" y="551" type="line"/>
      <point x="40" y="551" type="line"/>
      <point x="40" y="551"/>
      <point x="50" y="471"/>
      <point x="50" y="275" type="curve" smooth="yes"/>
      <point x="50" y="77"/>
      <point x="40" y="0"/>
    </contour>
  </outline>
</glyph>
<glyph name="o" format="2">
	<advance width="569"/>
	<unicode hex="006F"/>
	<anchor x="285" y="598" name="top"/>
	<outline>
		<contour>
			<point x="285" y="-14" type="curve" smooth="yes"/>
			<point x="442" y="-14"/>
			<point x="534" y="82"/>
			<point x="534" y="275" type="curve" smooth="yes"/>
			<point x="534" y="468"/>
			<point x="442" y="566"/>
			<point x="285" y="566" type="curve" smooth="yes"/>
			<point x="128" y="566"/>
			<point x="35" y="468"/>
			<point x="35" y="275" type="curve" smooth="yes"/>
			<point x="35" y="82"/>
			<point x="128" y="-14"/>
		</contour>
		<contour>
			<point x="285" y="66" type="curve" smooth="yes"/>
			<point x="213" y="66"/>
			<point x="135" y="108"/>
			<point x="135" y="275" type="curve" smooth="yes"/>
			<point x="135" y="442"/>
			<point x="213" y="485"/>
			<point x="285" y="485" type="curve" smooth="yes"/>
			<point x="357" y="485"/>
			<point x="435" y="442"/>
			<point x="435" y="275" type="curve" smooth="yes"/>
			<point x="435" y="108"/>
			<point x="357" y="66"/>
		</contour>
	</outline>
</glyph>
<glyph name="p" format="2">
	<advance width="561"/>
	<unicode hex="0070"/>
	<outline>
		<contour>
			<point x="132" y="-240" type="curve"/>
			<point x="105" y="-224"/>
			<point x="45" y="-195"/>
			<point x="45" y="-195" type="curve"/>
			<point x="64" y="-160"/>
			<point x="62" y="-115"/>
			<point x="62" y="-56" type="curve" smooth="yes"/>
			<point x="62" y="479"/>
			<point x="49" y="551"/>
			<point x="49" y="551" type="curve"/>
			<point x="129" y="551" type="line"/>
			<point x="141" y="489" type="line"/>
			<point x="141" y="489"/>
			<point x="202" y="566"/>
			<point x="308" y="565" type="curve"/>
			<point x="424" y="565"/>
			<point x="526" y="480"/>
			<point x="526" y="284" type="curve" smooth="yes"/>
			<point x="526" y="116"/>
			<point x="461" y="-13"/>
			<point x="320" y="-13" type="curve"/>
			<point x="188" y="-13"/>
			<point x="158" y="70"/>
			<point x="158" y="70" type="curve"/>
			<point x="158" y="70"/>
			<point x="159" y="-38"/>
			<point x="159" y="-80" type="curve" smooth="yes"/>
			<point x="159" y="-180"/>
			<point x="159" y="-220"/>
		</contour>
		<contour>
			<point x="296" y="69" type="curve" smooth="yes"/>
			<point x="390" y="69"/>
			<point x="428" y="149"/>
			<point x="428" y="282" type="curve" smooth="yes"/>
			<point x="428" y="417"/>
			<point x="375" y="483"/>
			<point x="293" y="483" type="curve"/>
			<point x="217" y="483"/>
			<point x="158" y="404"/>
			<point x="158" y="280" type="curve" smooth="yes"/>
			<point x="158" y="124"/>
			<point x="236" y="69"/>
		</contour>
	</outline>
</glyph>
<glyph name="q" format="2">
	<advance width="545"/>
	<unicode hex="0071"/>
	<outline>
		<contour>
			<point x="404" y="-217" type="curve"/>
			<point x="505" y="-178" type="line"/>
			<point x="504" y="-178"/>
			<point x="470" y="-135"/>
			<point x="470" y="-7" type="curve" smooth="yes"/>
			<point x="471" y="561" type="line"/>
			<point x="411" y="561" type="line"/>
			<point x="377" y="498" type="line"/>
			<point x="374" y="497"/>
			<point x="375" y="85"/>
			<point x="375" y="85" type="curve"/>
			<point x="375" y="-78" type="line" smooth="yes"/>
			<point x="375" y="-184"/>
			<point x="404" y="-217"/>
		</contour>
		<contour>
			<point x="232" y="-9" type="curve" smooth="yes"/>
			<point x="412" y="-9"/>
			<point x="432" y="180"/>
			<point x="432" y="224" type="curve"/>
			<point x="374" y="215" type="line"/>
			<point x="374" y="144"/>
			<point x="326" y="74"/>
			<point x="235" y="74" type="curve" smooth="yes"/>
			<point x="163" y="74"/>
			<point x="100" y="146"/>
			<point x="100" y="271" type="curve" smooth="yes"/>
			<point x="100" y="408"/>
			<point x="154" y="477"/>
			<point x="240" y="477" type="curve" smooth="yes"/>
			<point x="331" y="477"/>
			<point x="374" y="403"/>
			<point x="374" y="341" type="curve"/>
			<point x="434" y="349" type="line"/>
			<point x="434" y="426"/>
			<point x="380" y="561"/>
			<point x="234" y="561" type="curve" smooth="yes"/>
			<point x="100" y="561"/>
			<point x="0" y="464"/>
			<point x="0" y="276" type="curve" smooth="yes"/>
			<point x="0" y="77"/>
			<point x="110" y="-9"/>
		</contour>
	</outline>
</glyph>
<glyph name="r" format="2">
	<advance width="342"/>
	<unicode hex="0072"/>
	<outline>
		<contour>
			<point x="40" y="0" type="curve"/>
			<point x="150" y="0" type="line"/>
			<point x="150" y="0"/>
			<point x="140" y="77"/>
			<point x="140" y="275" type="curve" smooth="yes"/>
			<point x="140" y="470" type="line"/>
			<point x="117" y="551" type="line"/>
			<point x="40" y="551" type="line"/>
			<point x="40" y="551"/>
			<point x="50" y="471"/>
			<point x="50" y="274" type="curve" smooth="yes"/>
			<point x="50" y="77"/>
			<point x="40" y="0"/>
		</contour>
		<contour>
			<point x="140" y="360" type="line"/>
			<point x="140" y="440"/>
			<point x="169" y="477"/>
			<point x="226" y="477" type="curve" smooth="yes"/>
			<point x="279" y="477"/>
			<point x="314" y="444"/>
			<point x="314" y="444" type="curve"/>
			<point x="326" y="457"/>
			<point x="336" y="494"/>
			<point x="332" y="520" type="curve" smooth="yes"/>
			<point x="328" y="545"/>
			<point x="301" y="565"/>
			<point x="250" y="566" type="curve" smooth="yes"/>
			<point x="133" y="568"/>
			<point x="92" y="457"/>
			<point x="92" y="369" type="curve"/>
		</contour>
	</outline>
</glyph>
<glyph name="v" format="2">
	<advance width="506"/>
	<unicode hex="0076"/>
	<outline>
		<contour>
			<point x="182" y="0" type="curve"/>
			<point x="282" y="0" type="line"/>
			<point x="282" y="0"/>
			<point x="256" y="90"/>
			<point x="204" y="275" type="curve" smooth="yes"/>
			<point x="158" y="439"/>
			<point x="122" y="549"/>
			<point x="128" y="550" type="curve"/>
			<point x="5" y="550" type="line"/>
			<point x="-1" y="550"/>
			<point x="53" y="406"/>
			<point x="99" y="275" type="curve" smooth="yes"/>
			<point x="172" y="67"/>
			<point x="182" y="0"/>
		</contour>
		<contour>
			<point x="234" y="0" type="curve"/>
			<point x="319" y="0" type="line"/>
			<point x="319" y="0"/>
			<point x="328" y="54"/>
			<point x="388" y="237" type="curve" smooth="yes"/>
			<point x="469" y="482"/>
			<point x="501" y="516"/>
			<point x="501" y="516" type="curve"/>
			<point x="501" y="516"/>
			<point x="491" y="566"/>
			<point x="439" y="566" type="curve" smooth="yes"/>
			<point x="375" y="566"/>
			<point x="367" y="492"/>
			<point x="314" y="307" type="curve" smooth="yes"/>
			<point x="257" y="109"/>
			<point x="234" y="0"/>
		</contour>
	</outline>
</glyph>
<glyph name="w" format="2">
	<advance width="731"/>
	<unicode hex="0077"/>
	<outline>
		<contour>
			<point x="134" y="0" type="curve"/>
			<point x="281" y="0" type="line"/>
			<point x="379" y="510" type="line"/>
			<point x="336" y="509" type="line"/>
			<point x="432" y="0" type="line"/>
			<point x="581" y="0" type="line"/>
			<point x="588" y="44"/>
			<point x="611" y="152"/>
			<point x="645" y="288" type="curve" smooth="yes"/>
			<point x="684" y="444"/>
			<point x="709" y="518"/>
			<point x="716" y="530" type="curve"/>
			<point x="713" y="545"/>
			<point x="700" y="566"/>
			<point x="672" y="566" type="curve" smooth="yes"/>
			<point x="625" y="566"/>
			<point x="611" y="554"/>
			<point x="586" y="434" type="curve" smooth="yes"/>
			<point x="560" y="313"/>
			<point x="523" y="127"/>
			<point x="501" y="20" type="curve"/>
			<point x="528" y="27" type="line"/>
			<point x="476" y="275" type="line" smooth="yes"/>
			<point x="446" y="418"/>
			<point x="434" y="516"/>
			<point x="428" y="550" type="curve"/>
			<point x="319" y="550" type="line"/>
			<point x="276" y="375" type="line"/>
			<point x="196" y="19" type="line"/>
			<point x="225" y="35" type="line"/>
			<point x="174" y="275" type="line" smooth="yes"/>
			<point x="144" y="418"/>
			<point x="131" y="516"/>
			<point x="125" y="550" type="curve"/>
			<point x="15" y="550" type="line"/>
			<point x="23" y="520"/>
			<point x="42" y="425"/>
			<point x="76" y="275" type="curve" smooth="yes"/>
			<point x="112" y="117"/>
			<point x="131" y="25"/>
		</contour>
	</outline>
</glyph>
<glyph name="tilde" format="2">
	<advance width="364"/>
	<unicode hex="02DC"/>
	<anchor x="149" y="585" name="_top"/>
	<outline>
		<contour>
			<point x="229" y="608" type="curve" smooth="yes"/>
			<point x="302" y="608"/>
			<point x="325" y="685"/>
			<point x="325" y="685" type="curve"/>
			<point x="325" y="711"/>
			<point x="304" y="725"/>
			<point x="291" y="725" type="curve" smooth="yes"/>
			<point x="291" y="725"/>
			<point x="278" y="695"/>
			<point x="241" y="695" type="curve" smooth="yes"/>
			<point x="187" y="695"/>
			<point x="173" y="744"/>
			<point x="107" y="744" type="curve" smooth="yes"/>
			<point x="46" y="744"/>
			<point x="15" y="666"/>
			<point x="15" y="666" type="curve"/>
			<point x="15" y="640"/>
			<point x="30" y="628"/>
			<point x="50" y="628" type="curve" smooth="yes"/>
			<point x="50" y="628"/>
			<point x="74" y="659"/>
			<point x="102" y="659" type="curve" smooth="yes"/>
			<point x="156" y="659"/>
			<point x="175" y="608"/>
		</contour>
	</outline>
</glyph>
<glyph name="U.001" format="2">
	<advance width="659"/>
	<outline>
		<contour>
			<point x="327" y="-14" type="curve" smooth="yes"/>
			<point x="508" y="-14"/>
			<point x="601" y="86"/>
			<point x="603" y="365" type="curve" smooth="yes"/>
			<point x="604" y="539"/>
			<point x="607" y="692"/>
			<point x="609" y="750" type="curve"/>
			<point x="481" y="750" type="line"/>
			<point x="485" y="689"/>
			<point x="491" y="535"/>
			<point x="491" y="365" type="curve" smooth="yes"/>
			<point x="491" y="224"/>
			<point x="466" y="76"/>
			<point x="327" y="76" type="curve" smooth="yes"/>
			<point x="197" y="76"/>
			<point x="169" y="217"/>
			<point x="167" y="365" type="curve" smooth="yes"/>
			<point x="165" y="530"/>
			<point x="171" y="686"/>
			<point x="177" y="750" type="curve"/>
			<point x="50" y="750" type="line"/>
			<point x="53" y="686"/>
			<point x="57" y="530"/>
			<point x="58" y="365" type="curve" smooth="yes"/>
			<point x="59" y="82"/>
			<point x="155" y="-14"/>
		</contour>
	</outline>
</glyph>
<glyph name="g.alt" format="2">
  <advance width="557"/>
  <outline>
    <contour>
      <point x="342" y="480" type="curve"/>
      <point x="342" y="538" type="line"/>
      <point x="436" y="538"/>
      <point x="501" y="585"/>
      <point x="501" y="585" type="curve"/>
      <point x="501" y="585"/>
      <point x="520" y="578"/>
      <point x="520" y="541" type="curve" smooth="yes"/>
      <point x="520" y="485"/>
      <point x="491" y="480"/>
    </contour>
    <contour>
      <point x="113" y="74" type="curve"/>
      <point x="145" y="49" type="line"/>
      <point x="145" y="49"/>
      <point x="106" y="6"/>
      <point x="106" y="-44" type="curve" smooth="yes"/>
      <point x="106" y="-124"/>
      <point x="128" y="-136"/>
      <point x="282" y="-136" type="curve" smooth="yes"/>
      <point x="423" y="-136"/>
      <point x="442" y="-130"/>
      <point x="442" y="-73" type="curve" smooth="yes"/>
      <point x="442" y="-32.8252"/>
      <point x="427" y="-14"/>
      <point x="369" y="-14" type="curve" smooth="yes"/>
      <point x="341.567" y="-14"/>
      <point x="265.805" y="-14"/>
      <point x="230" y="-14" type="curve" smooth="yes"/>
      <point x="135" y="-14"/>
      <point x="52" y="19"/>
      <point x="52" y="117" type="curve" smooth="yes"/>
      <point x="52" y="208"/>
      <point x="139" y="249"/>
      <point x="139" y="249" type="curve"/>
      <point x="184" y="200" type="line"/>
      <point x="184" y="200"/>
      <point x="130" y="183"/>
      <point x="130" y="140" type="curve" smooth="yes"/>
      <point x="130" y="91"/>
      <point x="136" y="64"/>
      <point x="282" y="64" type="curve" smooth="yes"/>
      <point x="282" y="64"/>
      <point x="334" y="64.0791"/>
      <point x="363" y="64.0791" type="curve" smooth="yes"/>
      <point x="489" y="64.0791"/>
      <point x="532" y="28.6025"/>
      <point x="532" y="-65" type="curve" smooth="yes"/>
      <point x="532" y="-170"/>
      <point x="464" y="-214"/>
      <point x="282" y="-214" type="curve" smooth="yes"/>
      <point x="116" y="-214"/>
      <point x="30" y="-171"/>
      <point x="30" y="-57" type="curve" smooth="yes"/>
      <point x="30" y="35"/>
      <point x="113" y="74"/>
    </contour>
    <contour>
      <point x="164.26" y="359" type="curve" smooth="yes"/>
      <point x="164.26" y="270.728"/>
      <point x="193.357" y="232.63"/>
      <point x="271.63" y="232.63" type="curve" smooth="yes"/>
      <point x="349.902" y="232.63"/>
      <point x="379" y="270.728"/>
      <point x="379" y="359" type="curve" smooth="yes"/>
      <point x="379" y="447.272"/>
      <point x="349.902" y="485.37"/>
      <point x="271.63" y="485.37" type="curve" smooth="yes"/>
      <point x="193.357" y="485.37"/>
      <point x="164.26" y="447.272"/>
    </contour>
    <contour>
      <point x="64.2598" y="359" type="curve" smooth="yes"/>
      <point x="64.2598" y="482.548"/>
      <point x="156.982" y="566.37"/>
      <point x="271.63" y="566.37" type="curve" smooth="yes"/>
      <point x="386.277" y="566.37"/>
      <point x="479" y="482.548"/>
      <point x="479" y="359" type="curve" smooth="yes"/>
      <point x="479" y="235.452"/>
      <point x="386.277" y="151.63"/>
      <point x="271.63" y="151.63" type="curve" smooth="yes"/>
      <point x="156.982" y="151.63"/>
      <point x="64.2598" y="235.452"/>
    </contour>
  </outline>
</glyph>
